<svg width="142" height="145" viewBox="0 0 142 145" fill="none" xmlns="http://www.w3.org/2000/svg">
<path d="M27.1894 0.319153C27.07 0.591492 27.1297 1.27234 27.488 1.81703C28.3838 3.45107 28.1449 3.79149 25.8159 3.99574C23.7854 4.2 23.5465 4.40427 23.3674 6.24255C23.0688 9.2383 24.2632 13.2553 25.8756 14.4128C27.6074 15.7064 31.4295 16.3192 31.9072 15.4341C32.0864 15.0255 32.7433 14.7532 33.4002 14.7532C33.9974 14.7532 34.5946 14.3447 34.7738 13.8C34.9529 13.3234 35.9084 12.5745 36.9237 12.166C38.7153 11.417 38.8944 11.5532 40.3277 14.0723C42.179 17.2723 43.3137 17.4766 44.2692 14.8894C44.6275 13.8681 45.583 11.3489 46.4191 9.30638L47.912 5.56171L48.6287 12.3702C49.0467 16.1149 49.2259 19.3149 49.1662 19.4511C49.0467 19.5872 43.4928 19.7234 36.864 19.7234C30.1754 19.7234 26.7117 19.8596 29.1004 19.9958C31.4295 20.1319 33.4002 20.4723 33.4002 20.8128C33.4002 21.4255 16.3802 23.1957 15.6038 22.6511C14.9469 22.2426 11.9012 23.6723 11.9012 24.4213C11.9012 24.7617 12.5581 24.966 13.3942 24.966C14.5289 24.966 14.8872 25.3064 14.8872 26.5319C14.8872 28.234 13.0359 30.4128 11.6026 30.4128C10.5874 30.4128 10.4082 28.7106 11.304 28.0298C11.6624 27.8255 11.9012 27.1447 11.9012 26.5319C11.9012 25.5787 11.6624 25.6468 10.5277 26.8723C8.91526 28.5745 7.54171 28.7787 6.52648 27.417C5.98901 26.6 6.28761 26.0553 8.31807 24.6255C10.0499 23.4 10.6471 22.583 10.2291 22.1064C9.87077 21.6979 9.75133 20.4043 9.93049 19.1106C10.1694 17.3404 9.87077 16.1149 8.37779 13.4596C6.28761 9.85107 4.91406 8.21703 4.37658 8.82979C4.19743 9.03404 3.77939 11.7574 3.48079 14.8213C2.8836 20.7447 2.10725 23.4681 1.51005 21.5617C1.33089 21.017 1.09201 19.3149 0.972576 17.817C0.793418 16.3192 0.793418 18.1575 0.972576 21.9021C1.09201 25.6468 1.45033 29.8 1.68921 31.0936C2.16696 33.3404 2.22668 33.2723 2.2864 29.7319C2.34612 27.6894 2.76416 24.2851 3.24191 22.2426C3.71967 20.2 4.13771 17.0681 4.13771 15.2979C4.13771 13.5277 4.4363 11.8936 4.79462 11.6894C5.57097 11.0766 7.54171 13.1192 8.67638 15.5702C9.45273 17.2723 9.45273 17.7489 8.61666 19.5192C8.07919 20.6766 7.84031 21.834 7.95975 22.1745C8.13891 22.5149 7.90003 23.1277 7.36256 23.6723C5.39181 25.5106 5.15294 27.0085 6.5862 28.7787C7.30284 29.6638 7.60143 30.4128 7.24312 30.4128C6.82508 30.4128 6.52648 30.6851 6.52648 31.0936C6.52648 31.4341 6.94452 31.7745 7.42227 31.7745C7.95975 31.7745 8.31807 32.4553 8.37779 33.6128L8.4375 35.5192L8.85554 33.817C9.21386 32.3872 9.63189 32.1149 11.961 31.9106L14.708 31.7064L15.0664 39.7404C15.2455 44.166 15.3052 47.8426 15.1858 47.9787C15.1261 48.1149 13.872 46.2085 12.4387 43.7575C10.886 41.034 9.51245 39.3319 8.91526 39.4681C8.37779 39.5362 7.95975 38.9915 7.84031 38.0383C7.54171 35.7915 6.52648 36.2 6.52648 38.583C6.52648 42.1234 4.79462 40.8298 3.24191 36.1319L2.34612 33.4766L2.76416 36.2C3.12248 39.1958 5.75013 46.0723 6.52648 46.0723C6.76536 46.0723 7.30284 45.1192 7.72087 44.0298C8.67638 41.4426 9.75133 41.4426 10.6471 43.9617C11.0652 44.983 12.4984 47.1617 13.8123 48.7958C16.0816 51.5192 16.201 51.8596 15.7233 54.1064C15.365 55.7404 14.5886 56.966 13.5137 57.6468C12.0804 58.5319 11.7221 58.5319 10.2888 57.6468C7.84031 56.0809 7.95975 55.1277 10.6471 54.583C13.872 53.9702 14.7678 52.7447 13.1553 50.9064C12.4387 50.0894 11.2443 49.4766 10.468 49.4766C6.70564 49.4766 5.09322 47.7064 2.585 40.8298C1.80865 38.6511 1.21145 37.4936 1.21145 38.2426C1.21145 38.9915 2.64472 43.5532 4.37658 48.4553C7.00424 55.7404 7.95975 57.5787 9.57217 58.8724C11.7221 60.5745 13.7525 60.4383 15.6038 58.5319C16.6788 57.4426 16.4399 56.4894 18.769 70.583C20.2022 78.8213 22.8299 88.7617 25.3381 95.0255C26.4728 97.9532 27.4283 100.745 27.4283 101.153C27.4283 103.74 31.6086 110.889 36.0279 115.86C38.7153 118.855 42.7165 123.621 44.9858 126.413C50.9577 133.902 57.706 140.438 61.9461 142.889C65.3501 144.796 66.3056 145 71.0235 145C75.801 145 76.7565 144.796 80.3994 142.753C83.9826 140.779 86.0728 138.668 97.7778 125.119C105.123 116.677 111.573 108.847 112.051 107.757C113.365 104.898 119.695 84.6085 120.77 79.7745C122.322 72.966 122.92 69.766 123.577 65.1362C123.935 62.6851 124.353 60.0298 124.532 59.1447L124.831 57.5787L126.383 59.0085C128.294 60.7106 129.31 60.7106 131.639 59.1447C133.609 57.7149 133.729 57.5106 137.193 47.9787C139.522 41.7149 141.91 31.2979 141.194 30.5489C141.015 30.3447 140.895 30.3447 140.895 30.4809C140.895 32.5915 139.283 39.6043 138.148 42.6C136.237 47.5021 135.222 48.6596 132.594 49.1362C128.474 49.8851 127.876 50.1575 127.518 51.2468C127.1 52.5404 128.115 54.2426 129.31 54.2426C129.728 54.2426 130.803 54.583 131.758 54.9915L133.43 55.7404L131.997 57.034C130.146 58.8043 128.593 58.6681 126.861 56.6255C124.711 54.2426 124.95 51.9277 127.697 48.6596C129.011 47.1617 130.385 44.983 130.803 43.8936C131.639 41.5787 132.534 41.7149 133.609 44.234C134.027 45.2553 134.625 46.0723 134.864 46.0723C135.64 46.0723 137.73 40.6936 138.745 36.1319C139.94 30.5489 140.895 22.9915 140.895 18.634C140.895 15.2979 139.342 7.46809 138.805 8.08086C138.686 8.21703 138.984 9.91916 139.462 11.8255C140.417 15.5702 140.417 21.9021 139.402 21.9021C138.865 21.9021 138.566 20.3362 137.611 11.8255C137.372 9.98724 136.954 8.62553 136.536 8.62553C136.118 8.62553 134.744 10.3958 133.49 12.5064C131.639 15.7745 131.28 16.8638 131.519 18.9745C131.698 20.3362 131.519 21.766 131.161 22.1745C130.743 22.6511 131.221 23.3319 132.773 24.3532C134.147 25.2383 134.923 26.2596 134.804 26.9404C134.505 28.6426 132.594 28.6426 130.982 26.9404C129.787 25.6468 129.549 25.5787 129.549 26.5319C129.549 27.2809 129.071 27.6894 128.056 27.6894C126.742 27.6894 126.563 27.417 126.563 24.966C126.563 22.7872 126.801 22.2426 127.637 22.2426C128.235 22.2426 129.071 22.6511 129.489 23.0596C130.086 23.8085 130.205 23.6723 130.026 22.583C129.907 21.6979 129.31 21.1532 128.175 21.017C125.786 20.6766 126.085 18.634 129.31 12.7106C132.833 6.10638 134.744 3.85957 136.775 3.85957C138.626 3.85957 139.402 4.74469 140.537 8.3532C141.015 9.78299 141.433 10.6 141.433 10.1234C141.552 8.62553 139.94 4.94894 138.626 3.58723C137.67 2.63405 136.834 2.42979 135.401 2.77022C133.012 3.3149 132.355 3.92766 129.071 8.42128C126.861 11.5532 126.503 12.5064 126.145 16.2511L125.846 20.5404L120.949 20.0638C118.321 19.8596 115.096 19.5872 113.902 19.5872C112.23 19.5192 111.513 19.1106 110.916 17.8851C110.498 17 109.662 15.366 109.065 14.2085L108.05 12.0979L110.259 10.7362C113.484 8.89787 114.858 6.9915 114.38 5.01703C113.723 2.02129 107.034 -0.15744 105.183 1.9532C104.168 3.11064 104.287 4.06383 105.362 3.58723C106.079 3.3149 106.258 3.79149 106.258 5.83405C106.258 7.33192 106.437 8.96596 106.616 9.57874C106.855 10.3277 106.676 10.6681 106.019 10.6681C105.482 10.6681 105.064 11.1447 105.064 11.6894C105.064 12.2341 105.422 12.7106 105.9 12.7106C106.616 12.7106 109.841 18.1575 109.841 19.383C109.841 19.5192 107.631 19.5192 104.944 19.3149C102.197 19.0426 96.882 18.8383 93.1197 18.8383L86.2519 18.7702L89.2976 17.2043C91.4475 16.0468 92.5822 14.9575 93.1794 13.4596C94.1349 11.0766 94.1946 11.0085 95.7473 12.3702C98.3153 14.617 104.048 12.5064 104.825 9.03404C105.362 6.58298 103.571 2.90639 101.122 1.40851C99.2708 0.251068 98.9124 0.251068 97.4792 1.13617C96.5834 1.68086 95.3293 3.45107 94.6724 4.94894L93.4183 7.74043L91.7461 6.31064C90.3726 5.1532 88.999 4.81277 84.9381 4.60852C78.369 4.33618 77.8315 5.08511 81.4147 9.30638C83.8034 12.166 85.3561 14.6851 85.3561 15.8426C85.3561 16.0468 84.5201 16.1149 83.5048 15.8426C81.773 15.4341 81.6535 15.5702 82.0118 17.1362L82.3702 18.8383H74.9052C66.9028 18.8383 66.9028 18.8383 69.411 15.6383C70.0082 14.8213 70.904 14.3447 71.3221 14.4809C71.7401 14.6851 72.2179 14.4128 72.397 13.8681C72.5762 13.3234 73.5317 12.5745 74.5469 12.166C76.3385 11.417 76.5177 11.5532 77.9509 14.0723C79.5634 16.7957 80.5786 17.5447 80.5786 15.9106C80.5786 15.5021 80.0411 14.2085 79.4439 13.1872C78.8467 12.0979 78.4287 10.6681 78.6078 9.98724C78.787 9.2383 78.4884 8.69362 77.712 8.48936C76.9357 8.21703 76.2191 6.92342 75.5024 4.54044C74.308 0.523407 74.0094 0.795746 72.8748 6.65106C72.4567 8.7617 71.6207 11.0766 71.0235 11.6894C69.8888 12.9149 69.8291 12.8468 69.8291 10.8043C69.8291 9.30638 69.4708 8.62553 68.575 8.28511C67.7986 8.01277 67.5 7.46809 67.6792 6.78723C68.3361 4.88086 66.8431 3.85957 63.4988 3.85957C58.0046 3.85957 55.4367 5.90213 57.5866 8.62553C58.1838 9.37447 58.4824 9.98724 58.3032 9.98724C57.4074 9.98724 54.8992 8.3532 54.8992 7.80852C54.8992 6.71915 56.2131 4.2 57.0491 3.65532C57.5269 3.38298 57.8852 2.42979 57.8852 1.68086C57.8852 0.251068 57.8852 0.251068 56.3922 1.81703C55.6159 2.63405 54.6603 4.40427 54.302 5.56171C53.884 6.9915 53.2868 7.74043 52.6299 7.67235C52.0924 7.67235 51.6147 8.08086 51.6147 8.62553C51.6147 9.17021 51.973 9.57874 52.391 9.44255C52.9285 9.37447 53.1076 10.3277 53.0479 13.0511C52.9285 15.7064 52.6896 16.7957 52.0924 16.7957C51.1369 16.7957 51.0772 17.6128 52.0327 18.7021C52.5702 19.3149 52.5104 19.5192 51.7938 19.5192C50.6591 19.5192 50.3008 17.6128 49.7634 8.42128C49.5245 4.81277 49.1662 1.81703 48.9273 1.81703C48.2106 1.81703 46.2399 5.90213 44.6275 10.6C43.9108 12.8468 43.1345 14.7532 42.9553 14.7532C42.179 14.7532 40.5666 10.7362 40.9249 9.7149C41.1638 8.96596 40.9846 8.62553 40.3277 8.62553C39.3125 8.62553 37.5806 5.28937 37.5806 3.24681C37.5806 1.47659 36.5654 0.795746 36.207 2.29362C36.0279 2.97447 35.5501 5.01703 35.1918 6.92342C34.296 10.8723 33.5197 12.2341 32.4447 11.7574C32.0267 11.5532 31.5489 11.8936 31.3698 12.4383C31.1906 12.983 30.2351 13.3915 28.981 13.3915C27.3686 13.3915 26.6519 12.9149 25.6964 11.417C24.9798 10.3277 24.4423 8.62553 24.4423 7.67235C24.4423 6.10638 24.6812 5.90213 26.4728 5.90213C27.6074 5.90213 29.1601 6.51489 30.0559 7.33192C31.3698 8.55745 31.6086 8.55745 31.6086 7.60426C31.6086 6.44681 28.8616 0.727661 28.0255 0.114899C27.7269 -0.0893555 27.3686 -0.0212708 27.1894 0.319153ZM102.615 4.2681C104.227 6.58298 104.168 7.67235 102.376 9.64682C100.465 11.8936 95.807 12.0979 95.2098 9.98724C94.7918 8.3532 95.3293 6.17447 96.6431 4.06383C98.0167 1.88512 101.062 1.9532 102.615 4.2681ZM111.931 3.99574C112.767 4.40427 113.424 5.01703 113.424 5.28937C113.424 6.17447 109.124 10.0553 108.468 9.78299C108.05 9.64682 107.691 8.08086 107.572 6.37872C107.393 3.38298 107.452 3.17873 108.886 3.17873C109.722 3.17873 111.095 3.51915 111.931 3.99574ZM65.6487 5.90213C66.4251 6.44681 66.3654 6.65106 65.3501 7.53618C63.3794 9.2383 61.4684 9.44255 59.8559 8.28511C59.0199 7.67235 58.6018 6.85532 58.8407 6.58298C60.0351 5.35745 64.2752 4.88086 65.6487 5.90213ZM37.5806 9.10213C37.5806 9.57874 37.1626 9.98724 36.6848 9.98724C35.7293 9.98724 35.5501 9.37447 36.1473 7.60426C36.4459 6.71915 36.6251 6.65106 37.0431 7.40001C37.3417 7.8766 37.5806 8.69362 37.5806 9.10213ZM75.2038 9.10213C75.2038 9.57874 74.7858 9.98724 74.2483 9.98724C73.5914 9.98724 73.4123 9.64682 73.6511 8.89787C73.8303 8.28511 74.0094 7.46809 74.0094 7.05959C74.0094 5.97021 75.2038 8.01277 75.2038 9.10213ZM91.0295 8.21703C93.0002 9.7149 92.8808 11.5532 90.6712 13.6638C88.3421 15.9106 86.7894 15.9106 86.3116 13.7319C86.1325 12.8468 85.1173 11.0085 84.1617 9.7149C83.1465 8.48936 82.3702 7.19576 82.3702 6.92342C82.3702 5.97021 89.5365 7.12767 91.0295 8.21703ZM58.7213 13.0511C60.2143 14.8213 59.8559 15.8426 57.3477 16.6596C56.0936 17.1362 54.8992 17.4766 54.6603 17.4766C54.4812 17.4766 54.302 15.7745 54.302 13.7319V9.91916L56.0339 11.0085C56.9894 11.5532 58.1838 12.5064 58.7213 13.0511ZM68.5153 11.8936C68.7541 13.4596 66.5445 18.1575 65.589 18.1575C65.0515 18.1575 62.6628 13.2553 62.6628 12.0298C62.6628 11.0766 64.9918 9.98724 66.8431 10.1915C67.9181 10.2596 68.3958 10.8043 68.5153 11.8936ZM137.372 16.183C137.551 18.566 138.088 22.3787 138.447 24.6255C139.342 29.4596 138.924 34.2936 137.252 37.9702C135.879 41.1702 134.923 41.3745 134.923 38.583C134.923 37.4255 134.684 36.5404 134.326 36.5404C134.027 36.5404 133.729 37.3575 133.729 38.3106C133.729 39.6723 133.49 39.9447 132.594 39.6043C131.698 39.3319 131.101 39.9447 129.787 42.3277C128.832 44.0298 127.578 46.1404 126.981 46.9575C125.906 48.4553 125.906 48.3872 126.204 44.0979C126.383 41.7149 126.563 37.3575 126.563 34.4979C126.563 29.2553 126.563 29.1872 128.235 28.8468C130.504 28.3021 131.937 30.0043 131.937 33.2723C131.937 34.9064 132.176 35.7915 132.534 35.5192C132.893 35.3149 133.132 34.0894 133.132 32.8638C133.132 31.366 133.609 30.1404 134.625 29.0511C136.476 27.0766 136.476 26.8723 134.625 24.4213C133.848 23.3319 133.311 22.3106 133.43 22.1064C133.609 21.9021 133.371 20.8809 132.833 19.7915C132.355 18.7021 131.937 17.4766 131.937 17C131.937 15.7745 135.58 11.2809 136.357 11.5532C136.715 11.6894 137.193 13.7319 137.372 16.183ZM62.4239 15.8426C62.9016 17.2043 63.2599 18.3617 63.1405 18.4979C62.7822 18.8383 56.6908 19.5192 56.6908 19.1787C56.6908 18.9745 57.6463 18.4298 58.781 17.8851C60.3934 17.0681 60.8712 16.4553 60.8712 15.1617C60.8712 12.7106 61.3489 12.983 62.4239 15.8426ZM110.737 20.8128L116.112 21.2894L108.945 21.834C101.301 22.4468 68.8736 21.9021 62.9613 21.0851L59.3782 20.5404L63.2599 20.1319C67.9181 19.6553 103.153 20.1319 110.737 20.8128ZM57.1686 21.9702C61.767 22.2426 65.0515 22.7192 65.0515 23.1277C65.0515 23.6043 61.5281 23.6723 54.7798 23.4C49.1064 23.1277 41.8804 22.8553 38.775 22.8553L33.1016 22.7192L38.4764 21.834C41.4624 21.3575 45.0455 21.0851 46.5385 21.2894C48.0315 21.4255 52.809 21.766 57.1686 21.9702ZM119.993 21.5617C119.993 21.9021 119.575 22.2426 119.098 22.2426C118.62 22.2426 118.202 21.9021 118.202 21.5617C118.202 21.1532 118.62 20.8809 119.098 20.8809C119.575 20.8809 119.993 21.1532 119.993 21.5617ZM39.3722 24.3532C42.9553 24.4213 40.9249 24.7617 32.5044 25.3745C25.9353 25.8511 19.6648 26.2596 18.6495 26.2596C17.3357 26.3277 16.6788 26.6681 16.6788 27.3489C16.6788 27.8936 16.4399 28.3702 16.0816 28.3702C15.783 28.3702 15.4844 27.4851 15.4844 26.3958C15.4844 24.6255 15.7233 24.3532 17.4551 24.0809C18.4704 23.8766 22.7104 23.8766 26.8311 24.0128C30.9517 24.1489 36.5654 24.3532 39.3722 24.3532ZM125.965 25.6468C125.965 27.1447 125.667 27.6894 124.95 27.6894C124.174 27.6894 124.114 27.4851 124.652 26.8723C125.786 25.5787 125.488 24.4213 124.054 24.0809C122.86 23.8085 122.92 23.8085 124.353 23.6723C125.786 23.6043 125.965 23.8766 125.965 25.6468ZM98.793 24.8979C99.4499 25.2383 94.2543 25.7149 86.67 26.0553C79.3245 26.3958 73.1734 26.4638 72.9942 26.1234C72.8748 25.8511 73.89 25.5787 75.3233 25.5787C79.7425 25.3745 97.0014 24.5574 97.3 24.4894C97.4792 24.4213 98.1361 24.6255 98.793 24.8979ZM58.1838 26.3277C56.5714 26.6681 53.1674 26.8723 50.7189 26.8043C46.2399 26.8043 46.2399 26.8043 49.5245 26.3277C51.3161 26.0553 54.7201 25.8511 56.9894 25.8511C61.11 25.8511 61.11 25.8511 58.1838 26.3277ZM36.9834 28.3021C36.0876 28.9149 26.8311 29.4596 25.0395 29.0511C23.8451 28.7787 30.3545 27.9617 34.5946 27.8255C36.6848 27.7575 37.5806 27.9617 36.9834 28.3021ZM79.8022 28.6426C79.9814 28.8468 49.7634 30.3447 36.9834 30.7532C22.2924 31.2298 29.4587 29.8681 47.1357 28.8468C59.6171 28.0979 79.205 27.9617 79.8022 28.6426ZM121.367 28.166C120.591 28.3021 119.277 28.3021 118.381 28.166C117.425 28.0298 118.082 27.8936 119.695 27.8936C121.367 27.8936 122.084 28.0298 121.367 28.166ZM116.351 28.6426C116.231 28.7787 112.767 29.0511 108.647 29.2553C104.168 29.4596 102.496 29.3915 104.466 29.1192C108.109 28.5064 116.769 28.234 116.351 28.6426ZM20.7397 29.5277C20.1425 29.6638 19.0676 29.6638 18.3509 29.5277C17.5746 29.3915 18.0523 29.2553 19.3662 29.2553C20.68 29.1872 21.2772 29.3234 20.7397 29.5277ZM100.585 29.7319C100.823 30.1404 100.047 30.4128 98.6736 30.3447C96.6431 30.2766 96.5834 30.2085 97.8972 29.7319C99.9874 28.983 100.167 28.983 100.585 29.7319ZM125.965 32.1149C125.965 36.1319 124.771 48.3872 124.174 50.7021L123.696 52.5404L123.577 50.8383C123.517 49.8851 122.979 51.4511 122.322 54.2426C121.666 57.034 120.352 62.0723 119.456 65.4766C118.5 68.8128 117.306 73.9192 116.769 76.7106C115.992 80.7958 115.335 82.4298 113.544 84.6766C112.349 86.3106 110.976 88.8979 110.558 90.4638C107.273 102.651 106.616 104.626 105.302 105.647C104.526 106.192 100.823 111.366 97.0611 117.153C89.7156 128.387 87.2074 130.974 80.2203 134.719C76.5177 136.762 75.5621 136.966 70.7249 136.966C64.7529 136.898 62.3044 135.945 56.2131 131.383C51.6744 127.911 50.062 126.004 43.9108 116.472C40.9846 112.047 37.7 107.349 36.5654 106.123C35.4904 104.898 34.5946 103.4 34.5946 102.855C34.5946 102.243 33.6391 98.566 32.5044 94.5489C30.892 89.0341 29.8768 86.7192 28.2644 84.8128C26.5325 82.8383 25.9353 81.2043 24.7409 75.9617C23.0688 68.2 22.2924 65.2723 20.8591 60.3702C20.262 58.3277 19.5453 55.4 19.3064 53.9021C18.769 50.1575 17.7537 48.3192 18.1718 51.8596C18.4107 53.6979 18.3509 54.2426 17.9926 53.5617C17.276 52.2 16.2608 45.1872 15.7233 37.6979L15.365 31.7745L36.1473 31.9106C47.6135 31.9787 53.7646 32.183 49.8231 32.2511C45.9413 32.3872 42.5373 32.7277 42.3581 33.0681C42.179 33.4085 38.4167 34.0213 33.9974 34.4298C21.2175 35.6553 19.0676 35.9958 19.0676 36.6766C19.0676 37.0851 20.3814 37.2213 22.5313 37.017C53.5854 33.5447 89.2976 31.0255 107.93 31.0936C113.663 31.0936 117.545 30.8213 117.366 30.4809C116.828 29.5277 118.142 29.1872 122.263 29.1192L125.965 29.0511V32.1149ZM76.876 30.0723C76.6968 30.2766 73.3525 30.617 69.4708 30.7532C64.8126 30.8894 63.3794 30.8213 65.3501 30.4809C68.9333 29.8681 77.3537 29.5957 76.876 30.0723Z" fill="white"/>
<path d="M84.9381 33.2042C84.1617 33.5447 83.5645 34.0893 83.5645 34.4979C83.5645 35.451 84.2215 35.3149 85.595 34.1574C87.0283 32.9319 86.67 32.4553 84.9381 33.2042Z" fill="white"/>
<path d="M87.7449 35.5191C87.7449 36.1319 88.1032 36.3362 88.6407 36.1319C89.1185 35.8596 89.5365 35.451 89.5365 35.1106C89.5365 34.7702 89.1185 34.4979 88.6407 34.4979C88.163 34.4979 87.7449 34.9745 87.7449 35.5191Z" fill="white"/>
<path d="M59.1393 38.9915C56.87 41.1021 55.7353 44.983 56.6311 47.5702C57.8852 51.383 64.4543 51.5192 66.664 47.7064C67.7389 45.7319 69.2916 46.617 68.8139 48.9319C68.5153 50.0213 68.6944 50.2255 69.5902 49.8851C70.5457 49.5447 71.0235 50.2255 72.3373 53.5617C73.2331 55.9447 74.308 57.6468 74.7858 57.6468C76.1593 57.6468 78.6676 53.8341 79.3842 50.7021C80.1605 47.5702 79.8619 46.0724 78.2495 45.5958C77.4732 45.3915 77.2343 44.8468 77.4732 43.6213C77.6523 42.4638 77.4135 41.8511 76.6371 41.5107C75.0844 40.8298 69.5902 40.966 68.3958 41.783C67.6195 42.2596 66.8431 41.783 64.9918 39.8085C63.678 38.3787 62.2447 37.2213 61.767 37.2213C61.3489 37.2213 60.1545 38.0383 59.1393 38.9915ZM65.2904 41.4426C66.8431 43.8936 66.4848 45.9362 64.3349 47.4341C62.1253 48.9319 60.2143 49.1362 58.363 48.0468C56.9894 47.2298 57.1686 44.5745 58.8407 41.6468C60.1545 39.3319 63.9169 39.1958 65.2904 41.4426ZM75.5024 43.417C75.9802 44.2341 74.308 45.8 72.3373 46.4128C71.4415 46.6851 70.4263 46.3447 69.411 45.3915L67.9181 44.0298L69.2916 43.417C71.2623 42.5319 75.0247 42.5319 75.5024 43.417ZM78.5481 48.4553C78.9064 49.5447 76.5177 54.9915 75.5024 55.4C74.965 55.6043 72.2179 50.2936 72.2179 49.0681C72.2179 48.5234 74.8455 47.5021 76.5774 47.5021C77.4732 47.4341 78.369 47.8426 78.5481 48.4553Z" fill="white"/>
<path d="M81.773 38.5149C79.7425 40.3532 79.6828 46.1404 81.7132 49.3404C84.2812 53.4936 89.7754 54.8553 91.8058 51.8596C93.478 49.4766 94.5529 49.7489 95.807 52.8809C96.9417 55.8085 98.2555 57.4426 98.9124 56.7617C99.0916 56.4894 98.5541 55.1277 97.6583 53.6979C96.8223 52.2681 96.1056 50.6341 96.1056 50.0894C96.1056 49.5447 97.3 48.3872 98.793 47.5021C101.48 45.8681 102.555 43.7575 101.839 41.6468C101.361 40.149 97.7778 38.583 94.9112 38.583C92.8808 38.583 92.5225 38.7872 92.5225 40.0128C92.5225 40.7617 92.8211 41.1702 93.1197 40.966C93.478 40.7617 93.7169 41.1702 93.7169 41.8511C93.7169 42.6 93.896 44.0298 94.0752 45.1192C94.3738 46.8213 94.0752 47.366 91.8656 49.2724C89.1782 51.5872 88.0435 51.6553 84.6395 49.6809C81.7132 48.0468 82.6688 47.2979 87.5658 47.5021C90.3726 47.6383 92.2239 47.5021 92.3433 47.0255C92.7016 45.8 90.91 41.6468 89.0587 39.4C86.9686 36.8128 84.102 36.5404 81.773 38.5149ZM88.581 41.3745C91.2086 44.8468 90.7309 45.4596 85.8339 45.2553L81.4744 45.0511L81.5938 43.0085C81.8924 38.8553 86.013 37.9021 88.581 41.3745ZM98.793 40.8979C99.9277 41.4426 100.883 42.1915 100.883 42.6C100.883 43.5532 99.2708 45.2553 97.3 46.4128C95.6876 47.366 95.5682 47.2979 95.2098 46.0043C94.6724 44.2341 95.389 39.9447 96.1653 39.9447C96.4639 39.9447 97.6583 40.4213 98.793 40.8979Z" fill="white"/>
<path d="M42.9553 42.5319C42.9553 43.5532 43.1942 45.4596 43.5525 46.6851C43.9706 48.3192 43.9108 49.3404 43.4928 49.9532C43.1345 50.4298 43.0151 51.383 43.1942 51.9958C43.5525 53.017 43.672 53.017 44.1497 52.2C44.4483 51.6553 44.7469 51.383 44.8664 51.5192C44.9858 51.7234 45.4636 52.7447 45.9413 53.8341C46.4191 54.9234 47.1954 55.9447 47.6134 56.149C48.1509 56.3532 48.0315 55.5362 47.1954 53.6298C45.6427 50.2256 45.6427 49.4766 47.1357 49.4766C48.8078 49.4766 54.2423 51.9277 55.5561 53.2894C56.8102 54.583 57.6463 54.1745 57.0491 52.5405C56.6908 51.383 51.0772 48.1149 49.405 48.1149C47.5537 48.1149 48.2106 47.0256 51.0174 45.3234C52.5104 44.4383 53.7048 43.2809 53.7048 42.8724C53.7048 41.5787 53.0479 41.783 49.2856 44.3702C47.3746 45.6638 45.583 46.7532 45.3441 46.7532C44.6872 46.7532 44.1497 44.9149 44.1497 42.6C44.1497 41.5107 43.9108 40.6255 43.5525 40.6255C43.2539 40.6255 42.9553 41.4426 42.9553 42.5319Z" fill="white"/>
<path d="M32.9225 60.8468C29.9365 63.0255 28.981 65.8851 29.0407 72.2851C29.0407 76.9149 30.8323 82.0894 34.0571 86.5149C36.0876 89.3064 41.3429 92.4383 45.9413 93.6638C53.884 95.7064 61.6475 97.1362 62.7225 96.7958C63.4391 96.5234 64.3349 95.2979 64.8126 94.0043C65.2904 92.7106 66.5445 90.5319 67.6792 89.1021C71.3818 84.2681 71.0235 82.3617 66.6042 83.8596C57.2283 87.1277 46.2996 86.6511 39.3722 82.7021C35.8487 80.6596 35.3112 80.0468 33.7585 76.4383C32.6239 73.8511 31.9072 70.9915 31.7281 68.5404C31.4892 64.7277 31.5489 64.5234 33.9377 61.8C36.8042 58.5319 36.4459 58.2596 32.9225 60.8468Z" fill="white"/>
<path d="M108.169 61.5957C110.916 65.0681 111.394 67.1106 110.438 70.7872C108.348 79.0255 106.198 81.6808 99.6888 84.2681C94.314 86.3106 83.3854 86.3787 77.294 84.3362C75.0247 83.5872 72.9345 83.1106 72.6956 83.2468C71.6207 84.0638 72.397 86.3787 74.9052 89.7149C76.3982 91.6894 77.5926 93.6638 77.5926 94.1404C77.5926 94.617 78.3093 95.5702 79.1453 96.2511C80.698 97.5447 80.8772 97.5447 84.6992 96.3872C86.8491 95.7745 90.8503 94.7532 93.478 94.2085C103.153 92.1659 108.229 88.217 111.812 79.9106C113.603 75.6894 113.902 70.9915 112.708 66.2255C111.812 62.617 111.633 62.3447 108.527 60.3702L105.959 58.7362L108.169 61.5957Z" fill="white"/>
<path d="M67.4403 117.902C66.9028 118.651 66.9028 118.923 67.3806 118.923C67.7986 118.923 68.8736 119.945 69.8888 121.102C70.8443 122.328 71.6207 122.94 71.6207 122.532C71.6207 122.055 72.5762 120.966 73.7706 120.013C75.801 118.447 75.8608 118.311 74.7261 117.63C72.8748 116.54 68.3361 116.677 67.4403 117.902Z" fill="white"/>
<path d="M2.76416 3.85957C1.33089 5.15319 -0.520412 9.71489 0.136502 10.3957C0.25594 10.6 0.614257 9.85106 0.793415 8.82978C2.52528 0.863829 7.00424 2.63404 12.6776 13.4596L14.8872 17.817V14.8894C14.8872 12.5064 14.4094 11.3489 12.379 8.35319C9.93049 4.81276 7.06396 2.49787 5.15293 2.49787C4.67518 2.49787 3.60023 3.11064 2.76416 3.85957Z" fill="white"/>
<path d="M1.51005 10.3277C1.33089 10.9405 1.15173 12.0979 1.21145 12.9149C1.27117 14.0043 1.45033 13.7319 1.80865 12.0979C2.40584 9.78302 2.16696 8.35323 1.51005 10.3277Z" fill="white"/>
<path d="M141.612 16.4553C141.612 17.5447 141.731 17.9532 141.91 17.2724C142.03 16.6596 142.03 15.7064 141.91 15.2298C141.731 14.8213 141.612 15.2979 141.612 16.4553Z" fill="white"/>
<path d="M0.0767784 31.0936C0.0767784 32.0468 0.315656 33.6809 0.554533 34.8383C0.972569 36.6766 1.03229 36.6766 1.03229 35.1787C1.03229 34.2255 0.793411 32.5234 0.554533 31.4341C0.136498 29.5958 0.0767784 29.5958 0.0767784 31.0936Z" fill="white"/>
</svg>
